<svg width="40" height="40" viewBox="0 0 40 40" fill="none" xmlns="http://www.w3.org/2000/svg">
<path d="M20 3.75C19.2187 3.75 18.4425 4.0125 17.7737 4.4925L15.7037 5.9375L13.3187 6.25H13.28L13.2412 6.28875C12.459 6.46539 11.7429 6.86011 11.1759 7.42714C10.6089 7.99417 10.2141 8.71029 10.0375 9.4925L9.99999 9.53125V9.57L9.68749 11.9925L8.24249 13.8675L8.20249 13.9062V13.945C7.32874 15.3413 7.28999 17.1438 8.24249 18.4763L9.72624 20.5463L10.1175 22.6962L6.09374 28.8275L4.80499 30.7425H10.7812L12.2262 34.1013L13.125 36.25L14.4137 34.2963L18.3587 28.3588C19.4187 28.7938 20.615 28.8338 21.6412 28.3588L25.5862 34.2963L26.875 36.25L27.7737 34.1013L29.2187 30.7425H35.195L33.9062 28.8275L30 22.8912L30.3125 20.5475L31.7575 18.4775L31.7975 18.4388V18.4C32.6712 17.0038 32.71 15.24 31.7575 13.9075L30.3125 11.8362L29.8437 9.4925H29.8825C29.8775 9.4625 29.8487 9.4425 29.8437 9.41375C29.6187 7.77875 28.325 6.45125 26.68 6.25H26.64L24.2962 5.9375L22.2262 4.4925C21.5797 4.0189 20.8013 3.75929 20 3.75ZM20 6.28875C20.2875 6.28875 20.5712 6.37625 20.7812 6.52375L23.0075 8.125L23.2812 8.32L23.5937 8.36L26.3287 8.75H26.3662C26.9287 8.8125 27.3187 9.20375 27.3825 9.76625V9.84375L27.8912 12.6175L27.9287 12.8912L28.125 13.125L29.7262 15.3513C30.025 15.7663 30.0637 16.47 29.6875 17.07L27.93 19.5312L27.89 19.8438L27.5 22.5787V22.6163C27.4792 22.8116 27.4124 22.9992 27.305 23.1638L27.2262 23.2037V23.2413C27.0405 23.4644 26.774 23.605 26.485 23.6325H26.4062L23.555 24.1412L23.2425 24.1788L23.0075 24.375L20.7812 25.9763C20.3662 26.275 19.6237 26.3137 19.0237 25.9375L16.9925 24.375L16.7575 24.18L16.4062 24.14L13.6712 23.75H13.6337C13.457 23.7344 13.2866 23.6765 13.1369 23.5812C12.9872 23.4859 12.8627 23.356 12.7737 23.2025C12.6907 23.0583 12.6375 22.8989 12.6175 22.7338V22.6562L12.11 19.805L12.07 19.4925L11.875 19.2575L10.2737 17.0312C9.97499 16.6163 9.93624 15.8737 10.3125 15.2737L11.875 13.2425L12.07 13.0075L12.1087 12.6562L12.4612 10.0388C12.4662 10.02 12.495 10.02 12.5 10C12.5779 9.69909 12.7349 9.42451 12.9547 9.20472C13.1745 8.98493 13.4491 8.82793 13.75 8.75C13.77 8.745 13.77 8.71625 13.7887 8.71125L16.4062 8.35875L16.7187 8.32125L16.9925 8.125L19.2187 6.52375C19.4287 6.3775 19.7125 6.28875 20 6.28875ZM28.6325 25.3125L30.5475 28.2425H27.5375L27.225 29.0237L26.3662 31.015L23.71 26.9525L24.295 26.5237L26.7575 26.0938V26.1325C26.7862 26.1275 26.805 26.0988 26.835 26.0938C27.4929 25.9988 28.1145 25.729 28.6325 25.3125ZM11.3675 25.3513C11.9103 25.8447 12.5922 26.1586 13.32 26.25H13.3587L15.7425 26.5625L16.2887 26.9925L13.6325 31.015L12.7737 29.0237L12.4612 28.2425H9.45374L11.3675 25.3513Z" fill="white"/>
</svg>
