<svg width="256" height="256" viewBox="0 0 256 256" fill="none" xmlns="http://www.w3.org/2000/svg">
<path d="M177.1 114.5C182.206 108.258 185.661 100.832 187.146 92.9051C188.632 84.9784 188.1 76.8055 185.601 69.1379C183.102 61.4703 178.714 54.5543 172.843 49.0258C166.971 43.4973 159.804 39.5339 152 37.5V24C152 20.8174 150.736 17.7652 148.485 15.5147C146.235 13.2643 143.183 12 140 12C136.817 12 133.765 13.2643 131.515 15.5147C129.264 17.7652 128 20.8174 128 24V36H112V24C112 20.8174 110.736 17.7652 108.485 15.5147C106.235 13.2643 103.183 12 100 12C96.8174 12 93.7652 13.2643 91.5147 15.5147C89.2643 17.7652 88 20.8174 88 24V36H64C60.8174 36 57.7652 37.2643 55.5147 39.5147C53.2643 41.7652 52 44.8174 52 48C52 51.1826 53.2643 54.2348 55.5147 56.4853C57.7652 58.7357 60.8174 60 64 60H68V188H64C60.8174 188 57.7652 189.264 55.5147 191.515C53.2643 193.765 52 196.817 52 200C52 203.183 53.2643 206.235 55.5147 208.485C57.7652 210.736 60.8174 212 64 212H88V224C88 227.183 89.2643 230.235 91.5147 232.485C93.7652 234.736 96.8174 236 100 236C103.183 236 106.235 234.736 108.485 232.485C110.736 230.235 112 227.183 112 224V212H128V224C128 227.183 129.264 230.235 131.515 232.485C133.765 234.736 136.817 236 140 236C143.183 236 146.235 234.736 148.485 232.485C150.736 230.235 152 227.183 152 224V212C163.522 211.984 174.712 208.141 183.813 201.076C192.914 194.01 199.411 184.122 202.284 172.964C205.156 161.806 204.242 150.01 199.683 139.428C195.125 128.846 187.182 120.078 177.1 114.5ZM164 84C163.974 90.3571 161.437 96.4463 156.941 100.941C152.446 105.437 146.357 107.974 140 108H92V60H140C146.357 60.0263 152.446 62.5633 156.941 67.0585C161.437 71.5537 163.974 77.6429 164 84ZM152 188H92V132H152C159.426 132 166.548 134.95 171.799 140.201C177.05 145.452 180 152.574 180 160C180 167.426 177.05 174.548 171.799 179.799C166.548 185.05 159.426 188 152 188Z" fill="#117186"/>
</svg>
