<svg width="40" height="40" viewBox="0 0 40 40" fill="none" xmlns="http://www.w3.org/2000/svg">
<path d="M8.88887 9.11111H26.6667V10.8889H8.88887V9.11111ZM8.88887 18H17.8733V19.7778H8.88887V18ZM25.9755 13.5556H8.88887V15.3333H24.1989L25.9755 13.5556ZM14.2144 32.3022C14.5133 32.6449 14.8926 32.908 15.3183 33.0678C15.744 33.2276 16.2028 33.2792 16.6533 33.2178H25.3233C25.5296 33.2178 25.7274 33.1358 25.8733 32.99C26.0192 32.8441 26.1011 32.6463 26.1011 32.44C26.1011 32.2337 26.0192 32.0359 25.8733 31.89C25.7274 31.7442 25.5296 31.6622 25.3233 31.6622H16.6533C15.6411 31.6444 15.8211 30.7656 15.9633 30.4933C16.1487 30.1738 16.2932 29.8323 16.3933 29.4767C16.4598 29.1906 16.4284 28.8904 16.3044 28.6242C16.1803 28.358 15.9707 28.1409 15.7089 28.0078C15.2883 27.8183 14.8171 27.7719 14.3676 27.8756C13.9181 27.9793 13.515 28.2276 13.22 28.5822C12.8378 28.9767 12.3067 29.58 11.7978 30.1667C12.1122 28.9344 12.52 27.3533 12.92 25.8111C13.0346 25.4597 13.0118 25.0779 12.8561 24.7427C12.7005 24.4074 12.4235 24.1436 12.0811 24.0044C11.7019 23.8743 11.2874 23.8929 10.9214 24.0565C10.5554 24.22 10.265 24.5163 10.1089 24.8856C9.62887 25.8089 5.82887 32.1767 5.7911 32.2411C5.73871 32.3288 5.70412 32.426 5.68928 32.527C5.67444 32.6281 5.67966 32.7311 5.70463 32.8301C5.72959 32.9292 5.77383 33.0223 5.8348 33.1043C5.89577 33.1863 5.97229 33.2554 6.05998 33.3078C6.23709 33.4136 6.44897 33.4447 6.64901 33.3942C6.84905 33.3438 7.02086 33.216 7.12665 33.0389C7.26887 32.8 10.3022 27.7189 11.2589 26.0222C10.5389 28.8 9.74554 31.8911 9.69887 32.1689C9.64634 32.3731 9.66211 32.5889 9.74377 32.7833C9.82543 32.9778 9.96849 33.1401 10.1511 33.2456C10.3545 33.3464 10.5857 33.3767 10.8082 33.3317C11.0307 33.2866 11.2319 33.1687 11.38 32.9967C11.52 32.87 11.7822 32.5689 12.4433 31.8011C13.0593 31.0767 13.6902 30.365 14.3355 29.6667C14.5778 29.4111 14.7244 29.5244 14.5822 29.7756C14.304 30.1271 14.1236 30.5459 14.0592 30.9896C13.9948 31.4333 14.0476 31.8861 14.2144 32.3022Z" fill="white"/>
<path d="M31.1111 24.1056V35.5556H4.44445V4.44444H31.1111V9.99222L32.5889 8.51444C32.8164 8.29008 33.0658 8.08907 33.3333 7.91444V3.33333C33.3333 3.03865 33.2163 2.75603 33.0079 2.54766C32.7995 2.33928 32.5169 2.22222 32.2222 2.22222H3.33334C3.03866 2.22222 2.75604 2.33928 2.54767 2.54766C2.33929 2.75603 2.22223 3.03865 2.22223 3.33333V36.6667C2.22223 36.9614 2.33929 37.244 2.54767 37.4523C2.75604 37.6607 3.03866 37.7778 3.33334 37.7778H32.2222C32.5169 37.7778 32.7995 37.6607 33.0079 37.4523C33.2163 37.244 33.3333 36.9614 33.3333 36.6667V23.8078C32.6518 24.1689 31.8637 24.2745 31.1111 24.1056Z" fill="white"/>
<path d="M37.92 13.1789L37.3389 12.5978C37.6359 12.2053 37.7863 11.7213 37.764 11.2296C37.7416 10.7379 37.548 10.2695 37.2167 9.90555C36.7866 9.52648 36.2242 9.3327 35.6519 9.36642C35.0795 9.40013 34.5437 9.65861 34.1611 10.0856L20.2445 24L19.3145 27.4911C19.2998 27.5368 19.298 27.5857 19.3093 27.6323C19.3206 27.6789 19.3447 27.7215 19.3787 27.7553C19.4128 27.7891 19.4555 27.8129 19.5022 27.8239C19.5489 27.8349 19.5978 27.8328 19.6434 27.8178L23.1222 26.8767L36.1134 13.8856L36.6622 14.4356C36.7006 14.4738 36.731 14.5193 36.7517 14.5694C36.7725 14.6194 36.7832 14.673 36.7832 14.7272C36.7832 14.7814 36.7725 14.835 36.7517 14.8851C36.731 14.9351 36.7006 14.9806 36.6622 15.0189L31.1989 20.4822C31.0323 20.649 30.9387 20.8752 30.9388 21.1109C30.9389 21.3467 31.0327 21.5728 31.1995 21.7394C31.3663 21.9061 31.5924 21.9996 31.8282 21.9995C32.064 21.9994 32.2901 21.9057 32.4567 21.7389L37.92 16.2756C38.3307 15.8647 38.5613 15.3076 38.5613 14.7267C38.5613 14.1458 38.3307 13.5887 37.92 13.1778V13.1789Z" fill="white"/>
</svg>
