<svg width="32" height="32" viewBox="0 0 32 32" fill="none" xmlns="http://www.w3.org/2000/svg">
<path d="M30.007 15.042L23.217 8.29399C23.2193 8.29358 23.2217 8.29358 23.224 8.29399C22.1317 7.21562 21.0464 6.13027 19.968 5.03799C18.656 3.69799 16.693 3.56599 15.23 5.03799C14.388 5.88599 13.323 6.95399 12.547 7.72999L12.255 8.02199L11.993 8.28199C11.086 9.18899 10.46 9.81399 8.992 9.81799V9.83099C8.577 9.84099 8.162 9.86099 7.99 9.89599C7.362 10.024 6.693 10.361 5.968 11.24C5.07 12.33 2.953 14.86 2.007 15.988V21.455L2 21.457V29.995H30V22.461H30.007V15.042ZM13.507 8.18399C14.251 7.43899 15.184 6.50299 15.939 5.74399C16.495 5.18399 17.094 4.97299 17.636 4.98399C18.186 4.99399 18.761 5.23599 19.253 5.73799C19.721 6.21599 20.288 6.78599 20.831 7.32799C20.1772 7.46152 19.5448 7.68356 18.951 7.98799C18.387 8.28799 17.357 8.78599 16.061 8.78599C15.163 8.78599 14.395 8.57199 13.507 8.18399ZM19.749 25.024C19.8753 25.0255 20.0017 25.0262 20.128 25.026C23.191 25.003 26.205 24.112 29 22.974V28.995H3V22.257C4.15537 22.0439 5.33312 21.9783 6.505 22.062C7.735 22.157 9.122 22.426 10.687 22.966L11.429 23.222C14.77 24.379 16.545 24.993 19.749 25.024ZM20.121 24.026C20.001 24.0272 19.881 24.0268 19.761 24.025C16.906 23.997 15.399 23.48 12.057 22.323L11.338 22.075C9.567 21.465 7.987 21.164 6.579 21.065C5.38588 20.9693 4.18541 21.0271 3.007 21.237V16.352C4.032 15.128 5.907 12.887 6.74 11.876C7.21 11.306 7.597 11.07 7.905 10.956C7.932 10.946 7.958 10.937 7.985 10.929L7.988 11.662V11.668C7.99 12.065 7.992 12.501 7.992 13.007C7.992 14.057 8.294 15.09 8.927 15.883C9.576 16.696 10.541 17.21 11.716 17.21C13.001 17.21 14.164 17.876 15.121 18.844L20.279 24.024L20.121 24.026Z" fill="#117186"/>
</svg>
