<svg width="40" height="40" viewBox="0 0 40 40" fill="none" xmlns="http://www.w3.org/2000/svg">
<path d="M24.59 16.6667C26.2 16.6667 27.5066 17.9733 27.5066 19.5833V27.4983C27.5066 29.4879 26.7163 31.396 25.3095 32.8028C23.9026 34.2096 21.9945 35 20.005 35C18.0154 35 16.1073 34.2096 14.7005 32.8028C13.2937 31.396 12.5033 29.4879 12.5033 27.4983V19.5833C12.5033 17.9733 13.8083 16.6667 15.42 16.6667H24.59ZM24.59 19.1667H15.42C15.3095 19.1667 15.2035 19.2106 15.1254 19.2887C15.0472 19.3668 15.0033 19.4728 15.0033 19.5833V27.4983C15.0033 28.8249 15.5303 30.097 16.4683 31.035C17.4063 31.973 18.6785 32.5 20.005 32.5C21.3315 32.5 22.6037 31.973 23.5417 31.035C24.4797 30.097 25.0066 28.8249 25.0066 27.4983V19.5833C25.0066 19.4728 24.9627 19.3668 24.8846 19.2887C24.8065 19.2106 24.7005 19.1667 24.59 19.1667ZM6.24998 16.6667H11.885C11.297 17.3768 10.9379 18.2484 10.855 19.1667H6.24998C6.13947 19.1667 6.03349 19.2106 5.95535 19.2887C5.87721 19.3668 5.83331 19.4728 5.83331 19.5833V24.9983C5.83321 25.6281 5.97582 26.2498 6.25043 26.8166C6.52505 27.3833 6.92453 27.8805 7.41887 28.2708C7.9132 28.661 8.48954 28.9342 9.10459 29.0697C9.71964 29.2052 10.3574 29.1996 10.97 29.0533C11.1116 29.8933 11.37 30.695 11.725 31.44C10.7371 31.7043 9.7017 31.7378 8.6988 31.538C7.69591 31.3382 6.75239 30.9105 5.94122 30.2878C5.13006 29.6651 4.47296 28.8642 4.02075 27.947C3.56854 27.0298 3.33333 26.0209 3.33331 24.9983V19.5833C3.33331 17.9733 4.63998 16.6667 6.24998 16.6667ZM28.125 16.6667H33.75C35.36 16.6667 36.6666 17.9733 36.6666 19.5833V25C36.6669 26.0219 36.4322 27.0303 35.9806 27.947C35.5291 28.8638 34.8728 29.6645 34.0626 30.2873C33.2523 30.91 32.3097 31.3382 31.3076 31.5386C30.3055 31.7391 29.2708 31.7065 28.2833 31.4433C28.64 30.6967 28.8983 29.895 29.0416 29.055C29.6535 29.1996 30.2901 29.2039 30.9038 29.0675C31.5174 28.9311 32.0923 28.6577 32.5853 28.2676C33.0784 27.8775 33.4767 27.3809 33.7506 26.8151C34.0244 26.2492 34.1667 25.6287 34.1666 25V19.5833C34.1666 19.4728 34.1227 19.3668 34.0446 19.2887C33.9665 19.2106 33.8605 19.1667 33.75 19.1667H29.155C29.0721 18.2484 28.713 17.3768 28.125 16.6667ZM20 5C21.3261 5 22.5978 5.52678 23.5355 6.46447C24.4732 7.40215 25 8.67392 25 10C25 11.3261 24.4732 12.5979 23.5355 13.5355C22.5978 14.4732 21.3261 15 20 15C18.6739 15 17.4021 14.4732 16.4644 13.5355C15.5268 12.5979 15 11.3261 15 10C15 8.67392 15.5268 7.40215 16.4644 6.46447C17.4021 5.52678 18.6739 5 20 5ZM30.8333 6.66667C31.9384 6.66667 32.9982 7.10565 33.7796 7.88706C34.561 8.66846 35 9.72826 35 10.8333C35 11.9384 34.561 12.9982 33.7796 13.7796C32.9982 14.561 31.9384 15 30.8333 15C29.7282 15 28.6684 14.561 27.887 13.7796C27.1056 12.9982 26.6666 11.9384 26.6666 10.8333C26.6666 9.72826 27.1056 8.66846 27.887 7.88706C28.6684 7.10565 29.7282 6.66667 30.8333 6.66667ZM9.16665 6.66667C10.2717 6.66667 11.3315 7.10565 12.1129 7.88706C12.8943 8.66846 13.3333 9.72826 13.3333 10.8333C13.3333 11.9384 12.8943 12.9982 12.1129 13.7796C11.3315 14.561 10.2717 15 9.16665 15C8.06158 15 7.00177 14.561 6.22037 13.7796C5.43897 12.9982 4.99998 11.9384 4.99998 10.8333C4.99998 9.72826 5.43897 8.66846 6.22037 7.88706C7.00177 7.10565 8.06158 6.66667 9.16665 6.66667ZM20 7.5C19.3369 7.5 18.7011 7.76339 18.2322 8.23223C17.7634 8.70107 17.5 9.33696 17.5 10C17.5 10.663 17.7634 11.2989 18.2322 11.7678C18.7011 12.2366 19.3369 12.5 20 12.5C20.663 12.5 21.2989 12.2366 21.7677 11.7678C22.2366 11.2989 22.5 10.663 22.5 10C22.5 9.33696 22.2366 8.70107 21.7677 8.23223C21.2989 7.76339 20.663 7.5 20 7.5ZM30.8333 9.16667C30.3913 9.16667 29.9674 9.34226 29.6548 9.65482C29.3422 9.96738 29.1666 10.3913 29.1666 10.8333C29.1666 11.2754 29.3422 11.6993 29.6548 12.0118C29.9674 12.3244 30.3913 12.5 30.8333 12.5C31.2753 12.5 31.6993 12.3244 32.0118 12.0118C32.3244 11.6993 32.5 11.2754 32.5 10.8333C32.5 10.3913 32.3244 9.96738 32.0118 9.65482C31.6993 9.34226 31.2753 9.16667 30.8333 9.16667ZM9.16665 9.16667C8.72462 9.16667 8.3007 9.34226 7.98814 9.65482C7.67557 9.96738 7.49998 10.3913 7.49998 10.8333C7.49998 11.2754 7.67557 11.6993 7.98814 12.0118C8.3007 12.3244 8.72462 12.5 9.16665 12.5C9.60867 12.5 10.0326 12.3244 10.3452 12.0118C10.6577 11.6993 10.8333 11.2754 10.8333 10.8333C10.8333 10.3913 10.6577 9.96738 10.3452 9.65482C10.0326 9.34226 9.60867 9.16667 9.16665 9.16667Z" fill="white"/>
</svg>
