<svg width="40" height="40" viewBox="0 0 40 40" fill="none" xmlns="http://www.w3.org/2000/svg">
<g clip-path="url(#clip0_37_2)">
<path d="M28 38.64V39.9733H29.3333V38.64H28ZM1.33333 38.64H0V39.9733H1.33333V38.64ZM38.6667 38.6667V40H40V38.6667H38.6667ZM21.3333 9.328C21.333 10.2031 21.1603 11.0696 20.825 11.878C20.4898 12.6864 19.9987 13.4208 19.3796 14.0394C18.7606 14.6579 18.0257 15.1485 17.2171 15.4831C16.4084 15.8177 15.5418 15.9897 14.6667 15.9893V18.656C19.8213 18.656 24 14.48 24 9.328H21.3333ZM14.6667 15.9893C13.7915 15.9897 12.9249 15.8177 12.1163 15.4831C11.3076 15.1485 10.5728 14.6579 9.95373 14.0394C9.33467 13.4208 8.84351 12.6864 8.50829 11.878C8.17307 11.0696 8.00035 10.2031 8 9.328H5.33333C5.33368 10.5533 5.57538 11.7666 6.04461 12.8985C6.51384 14.0304 7.20143 15.0588 8.06811 15.925C8.93479 16.7912 9.96359 17.4782 11.0958 17.9468C12.228 18.4154 13.4413 18.6564 14.6667 18.656V15.9893ZM8 9.328C8.00035 8.45287 8.17307 7.58638 8.50829 6.778C8.84351 5.96962 9.33467 5.23518 9.95373 4.61662C10.5728 3.99806 11.3076 3.50749 12.1163 3.17291C12.9249 2.83834 13.7915 2.66632 14.6667 2.66667V3.81205e-07C13.4413 -0.000349861 12.228 0.240648 11.0958 0.709234C9.96359 1.17782 8.93479 1.86482 8.06811 2.731C7.20143 3.59719 6.51384 4.6256 6.04461 5.75751C5.57538 6.88943 5.33368 8.10268 5.33333 9.328H8ZM14.6667 2.66667C16.4339 2.66667 18.1287 3.36831 19.3788 4.6174C20.6289 5.86649 21.3319 7.56081 21.3333 9.328H24C23.9997 8.10268 23.758 6.88943 23.2887 5.75751C22.8195 4.6256 22.1319 3.59719 21.2652 2.731C20.3985 1.86482 19.3697 1.17782 18.2376 0.709234C17.1054 0.240648 15.892 -0.000349861 14.6667 3.81205e-07V2.66667ZM28 37.3067H1.33333V39.9733H28V37.3067ZM2.66667 38.64V33.32H0V38.64H2.66667ZM9.33333 26.6507H20V23.984H9.33333V26.6507ZM26.6667 33.3173V38.64H29.3333V33.3173H26.6667ZM20 26.6507C21.7681 26.6507 23.4638 27.353 24.714 28.6033C25.9643 29.8535 26.6667 31.5492 26.6667 33.3173H29.3333C29.3333 30.842 28.35 28.468 26.5997 26.7177C24.8493 24.9673 22.4754 23.984 20 23.984V26.6507ZM2.66667 33.32C2.66667 31.5519 3.36905 29.8535 4.61929 28.6033C5.86953 27.353 7.56522 26.6507 9.33333 26.6507V23.984C6.85798 23.984 4.48401 24.9673 2.73367 26.7177C0.98333 28.468 0 30.8446 0 33.32H2.66667ZM37.3333 34.6667V38.6667H40V34.6667H37.3333ZM38.6667 37.3333H32V40H38.6667V37.3333ZM32 29.3333C33.4145 29.3333 34.771 29.8952 35.7712 30.8954C36.7714 31.8956 37.3333 33.2522 37.3333 34.6667H40C40 32.5449 39.1571 30.5101 37.6569 29.0098C36.1566 27.5095 34.1217 26.6667 32 26.6667V29.3333ZM30.6667 21.3333C29.6058 21.3333 28.5884 20.9119 27.8382 20.1618C27.0881 19.4116 26.6667 18.3942 26.6667 17.3333H24C24 19.1014 24.7024 20.7971 25.9526 22.0474C27.2029 23.2976 28.8986 24 30.6667 24V21.3333ZM34.6667 17.3333C34.6667 18.3942 34.2452 19.4116 33.4951 20.1618C32.7449 20.9119 31.7275 21.3333 30.6667 21.3333V24C32.4348 24 34.1305 23.2976 35.3807 22.0474C36.631 20.7971 37.3333 19.1014 37.3333 17.3333H34.6667ZM30.6667 13.3333C31.7275 13.3333 32.7449 13.7548 33.4951 14.5049C34.2452 15.2551 34.6667 16.2725 34.6667 17.3333H37.3333C37.3333 15.5652 36.631 13.8695 35.3807 12.6193C34.1305 11.369 32.4348 10.6667 30.6667 10.6667V13.3333ZM30.6667 10.6667C28.8986 10.6667 27.2029 11.369 25.9526 12.6193C24.7024 13.8695 24 15.5652 24 17.3333H26.6667C26.6667 16.2725 27.0881 15.2551 27.8382 14.5049C28.5884 13.7548 29.6058 13.3333 30.6667 13.3333V10.6667Z" fill="white"/>
</g>
<defs>
<clipPath id="clip0_37_2">
<rect width="40" height="40" fill="white"/>
</clipPath>
</defs>
</svg>
